<?xml version="1.0" encoding="UTF-8"?>
<svg xmlns="http://www.w3.org/2000/svg" width="180" height="180" viewBox="0 0 180 180">
  <defs>
    <linearGradient id="logoGradientApple" x1="0%" y1="0%" x2="100%" y2="100%">
      <stop offset="0%" style="stop-color:#fbbf24;stop-opacity:1" />
      <stop offset="50%" style="stop-color:#f59e0b;stop-opacity:1" />
      <stop offset="100%" style="stop-color:#d97706;stop-opacity:1" />
    </linearGradient>
    <filter id="drop-shadow">
      <feDropShadow dx="0" dy="2" stdDeviation="3" flood-opacity="0.3"/>
    </filter>
  </defs>
  
  <!-- iOS会自动处理背景和圆角 -->
  
  <!-- 主花朵图案 -->
  <g transform="translate(90, 90)" filter="url(#drop-shadow)">
    
    <!-- 上方花瓣 -->
    <path d="M 7.11 -48.25 C 7.11 -63.05 0 -74.49 0 -74.49 C 0 -74.49 -7.11 -63.05 -7.11 -48.25 C -7.11 -33.45 0 -22.01 0 -22.01 C 0 -22.01 7.11 -33.45 7.11 -48.25 Z" fill="url(#logoGradientApple)"/>
    
    <!-- 下方花瓣 -->
    <path d="M 7.11 64.6 C 7.11 50.5 0 39.16 0 39.16 C 0 39.16 -7.11 50.5 -7.11 64.6 C -7.11 78.7 0 90.04 0 90.04 C 0 90.04 7.11 78.7 7.11 64.6 Z" fill="url(#logoGradientApple)"/>
    
    <!-- 左方花瓣 -->
    <path d="M -56.82 1.09 C -70.91 1.09 -82.39 8.18 -82.39 8.18 C -82.39 8.18 -70.91 15.27 -56.82 15.27 C -42.73 15.27 -31.25 8.18 -31.25 8.18 C -31.25 8.18 -42.73 1.09 -56.82 1.09 Z" fill="url(#logoGradientApple)"/>
    
    <!-- 右方花瓣 -->
    <path d="M 56.82 1.09 C 42.73 1.09 31.25 8.18 31.25 8.18 C 31.25 8.18 42.73 15.27 56.82 15.27 C 70.91 15.27 82.39 8.18 82.39 8.18 C 82.39 8.18 70.91 1.09 56.82 1.09 Z" fill="url(#logoGradientApple)"/>
    
    <!-- 左上角方块 -->
    <path d="M -33.66 16.94 C -39.59 16.94 -44.43 21.74 -44.43 27.72 L -44.43 53.01 L -19.15 53.01 C -13.22 53.01 -8.38 48.21 -8.38 42.23 L -8.38 29.89 L -21.31 16.94 L -33.66 16.94 Z" fill="url(#logoGradientApple)"/>
    
    <!-- 右上角方块 -->
    <path d="M 9.12 42.23 C 9.12 48.21 13.96 53.01 19.89 53.01 L 45.17 53.01 L 45.17 27.72 C 45.17 21.74 40.33 16.94 34.4 16.94 L 22.05 16.94 L 9.12 29.89 L 9.12 42.23 Z" fill="url(#logoGradientApple)"/>
    
    <!-- 左下角方块 -->
    <path d="M -8.38 -25.79 C -8.38 -31.77 -13.22 -36.57 -19.15 -36.57 L -44.43 -36.57 L -44.43 -11.33 C -44.43 -5.35 -39.59 -0.55 -33.66 -0.55 L -21.31 -0.55 L -8.38 -13.47 L -8.38 -25.79 Z" fill="url(#logoGradientApple)"/>
    
    <!-- 右下角方块 -->
    <path d="M 34.4 -36.57 L 19.89 -36.57 C 13.96 -36.57 9.12 -31.77 9.12 -25.79 L 9.12 -13.47 L 22.05 -0.55 L 34.4 -0.55 C 40.33 -0.55 45.17 -5.35 45.17 -11.33 L 45.17 -36.57 L 34.4 -36.57 Z" fill="url(#logoGradientApple)"/>
    
    <!-- 中心菱形 -->
    <path d="M 3.11 23.74 C 1.59 25.24 -0.86 25.24 -2.37 23.74 L -15.14 10.97 C -16.66 9.47 -16.66 7.02 -15.14 5.5 L -2.37 -7.3 C -0.86 -8.8 1.59 -8.8 3.11 -7.3 L 15.88 5.5 C 17.39 7.02 17.39 9.47 15.88 10.97 L 3.11 23.74 Z" fill="url(#logoGradientApple)"/>
    
  </g>
</svg> 