<?xml version="1.0" encoding="UTF-8"?>
<svg xmlns="http://www.w3.org/2000/svg" width="192" height="192" viewBox="0 0 192 192">
  <defs>
    <linearGradient id="logoGradient192" x1="0%" y1="0%" x2="100%" y2="100%">
      <stop offset="0%" style="stop-color:#fbbf24;stop-opacity:1" />
      <stop offset="50%" style="stop-color:#f59e0b;stop-opacity:1" />
      <stop offset="100%" style="stop-color:#d97706;stop-opacity:1" />
    </linearGradient>
    <filter id="drop-shadow">
      <feDropShadow dx="0" dy="2" stdDeviation="3" flood-opacity="0.3"/>
    </filter>
  </defs>
  
  <!-- 透明背景 -->
  
  <!-- 主花朵图案 -->
  <g transform="translate(96, 96)" filter="url(#drop-shadow)">
    
    <!-- 上方花瓣 -->
    <path d="M 7.59 -51.46 C 7.59 -67.23 0 -79.46 0 -79.46 C 0 -79.46 -7.59 -67.23 -7.59 -51.46 C -7.59 -35.69 0 -23.46 0 -23.46 C 0 -23.46 7.59 -35.69 7.59 -51.46 Z" fill="url(#logoGradient192)"/>
    
    <!-- 下方花瓣 -->
    <path d="M 7.59 68.93 C 7.59 53.86 0 41.73 0 41.73 C 0 41.73 -7.59 53.86 -7.59 68.93 C -7.59 83.99 0 96.13 0 96.13 C 0 96.13 7.59 83.99 7.59 68.93 Z" fill="url(#logoGradient192)"/>
    
    <!-- 左方花瓣 -->
    <path d="M -60.61 1.16 C -75.64 1.16 -87.86 8.73 -87.86 8.73 C -87.86 8.73 -75.64 16.3 -60.61 16.3 C -45.58 16.3 -33.36 8.73 -33.36 8.73 C -33.36 8.73 -45.58 1.16 -60.61 1.16 Z" fill="url(#logoGradient192)"/>
    
    <!-- 右方花瓣 -->
    <path d="M 60.61 1.16 C 45.58 1.16 33.36 8.73 33.36 8.73 C 33.36 8.73 45.58 16.3 60.61 16.3 C 75.64 16.3 87.86 8.73 87.86 8.73 C 87.86 8.73 75.64 1.16 60.61 1.16 Z" fill="url(#logoGradient192)"/>
    
    <!-- 左上角方块 -->
    <path d="M -35.9 18.07 C -42.24 18.07 -47.39 23.19 -47.39 29.59 L -47.39 56.53 L -20.45 56.53 C -14.11 56.53 -8.96 51.38 -8.96 45.01 L -8.96 31.89 L -22.73 18.07 L -35.9 18.07 Z" fill="url(#logoGradient192)"/>
    
    <!-- 右上角方块 -->
    <path d="M 9.73 45.01 C 9.73 51.38 14.88 56.53 21.22 56.53 L 48.16 56.53 L 48.16 29.59 C 48.16 23.19 43.01 18.07 36.67 18.07 L 23.5 18.07 L 9.73 31.89 L 9.73 45.01 Z" fill="url(#logoGradient192)"/>
    
    <!-- 左下角方块 -->
    <path d="M -8.96 -27.51 C -8.96 -33.85 -14.11 -39 -20.45 -39 L -47.39 -39 L -47.39 -12.09 C -47.39 -5.69 -42.24 -0.58 -35.9 -0.58 L -22.73 -0.58 L -8.96 -14.36 L -8.96 -27.51 Z" fill="url(#logoGradient192)"/>
    
    <!-- 右下角方块 -->
    <path d="M 36.67 -39 L 21.22 -39 C 14.88 -39 9.73 -33.85 9.73 -27.51 L 9.73 -14.36 L 23.5 -0.58 L 36.67 -0.58 C 43.01 -0.58 48.16 -5.69 48.16 -12.09 L 48.16 -39 L 36.67 -39 Z" fill="url(#logoGradient192)"/>
    
    <!-- 中心菱形 -->
    <path d="M 3.32 25.3 C 1.7 26.89 -0.91 26.89 -2.53 25.3 L -16.15 11.68 C -17.77 10.07 -17.77 7.46 -16.15 5.84 L -2.53 -7.78 C -0.91 -9.39 1.7 -9.39 3.32 -7.78 L 16.94 5.84 C 18.56 7.46 18.56 10.07 16.94 11.68 L 3.32 25.3 Z" fill="url(#logoGradient192)"/>
    
  </g>
</svg> 