<?xml version="1.0" encoding="UTF-8"?>
<svg xmlns="http://www.w3.org/2000/svg" width="512" height="512" viewBox="0 0 512 512">
  <defs>
    <linearGradient id="logoGradient512" x1="0%" y1="0%" x2="100%" y2="100%">
      <stop offset="0%" style="stop-color:#fbbf24;stop-opacity:1" />
      <stop offset="50%" style="stop-color:#f59e0b;stop-opacity:1" />
      <stop offset="100%" style="stop-color:#d97706;stop-opacity:1" />
    </linearGradient>
    <filter id="drop-shadow">
      <feDropShadow dx="0" dy="3" stdDeviation="5" flood-opacity="0.3"/>
    </filter>
  </defs>
  
  <!-- 透明背景 -->
  
  <!-- 主花朵图案 -->
  <g transform="translate(256, 256)" filter="url(#drop-shadow)">
    
    <!-- 上方花瓣 -->
    <path d="M 20.25 -137.35 C 20.25 -179.46 0 -212.01 0 -212.01 C 0 -212.01 -20.25 -179.46 -20.25 -137.35 C -20.25 -95.24 0 -62.69 0 -62.69 C 0 -62.69 20.25 -95.24 20.25 -137.35 Z" fill="url(#logoGradient512)"/>
    
    <!-- 下方花瓣 -->
    <path d="M 20.25 183.89 C 20.25 143.75 0 111.33 0 111.33 C 0 111.33 -20.25 143.75 -20.25 183.89 C -20.25 224.04 0 256.46 0 256.46 C 0 256.46 20.25 224.04 20.25 183.89 Z" fill="url(#logoGradient512)"/>
    
    <!-- 左方花瓣 -->
    <path d="M -161.76 3.1 C -202.15 3.1 -234.42 23.29 -234.42 23.29 C -234.42 23.29 -202.15 43.49 -161.76 43.49 C -121.37 43.49 -89.1 23.29 -89.1 23.29 C -89.1 23.29 -121.37 3.1 -161.76 3.1 Z" fill="url(#logoGradient512)"/>
    
    <!-- 右方花瓣 -->
    <path d="M 161.76 3.1 C 121.37 3.1 89.1 23.29 89.1 23.29 C 89.1 23.29 121.37 43.49 161.76 43.49 C 202.15 43.49 234.42 23.29 234.42 23.29 C 234.42 23.29 202.15 3.1 161.76 3.1 Z" fill="url(#logoGradient512)"/>
    
    <!-- 左上角方块 -->
    <path d="M -95.89 48.23 C -112.83 48.23 -126.59 61.89 -126.59 78.94 L -126.59 150.97 L -54.63 150.97 C -37.7 150.97 -23.94 137.31 -23.94 120.27 L -23.94 85.21 L -60.72 48.23 L -95.89 48.23 Z" fill="url(#logoGradient512)"/>
    
    <!-- 右上角方块 -->
    <path d="M 25.98 120.27 C 25.98 137.31 39.74 150.97 56.67 150.97 L 128.63 150.97 L 128.63 78.94 C 128.63 61.89 114.87 48.23 97.94 48.23 L 62.77 48.23 L 25.98 85.21 L 25.98 120.27 Z" fill="url(#logoGradient512)"/>
    
    <!-- 左下角方块 -->
    <path d="M -23.94 -73.46 C -23.94 -90.5 -37.7 -104.16 -54.63 -104.16 L -126.59 -104.16 L -126.59 -32.29 C -126.59 -15.24 -112.83 -1.55 -95.89 -1.55 L -60.72 -1.55 L -23.94 -38.33 L -23.94 -73.46 Z" fill="url(#logoGradient512)"/>
    
    <!-- 右下角方块 -->
    <path d="M 97.94 -104.16 L 56.67 -104.16 C 39.74 -104.16 25.98 -90.5 25.98 -73.46 L 25.98 -38.33 L 62.77 -1.55 L 97.94 -1.55 C 114.87 -1.55 128.63 -15.24 128.63 -32.29 L 128.63 -104.16 L 97.94 -104.16 Z" fill="url(#logoGradient512)"/>
    
    <!-- 中心菱形 -->
    <path d="M 8.87 67.57 C 4.55 71.73 -2.43 71.73 -6.75 67.57 L -43.11 31.21 C -47.43 27.05 -47.43 19.93 -43.11 15.61 L -6.75 -20.77 C -2.43 -24.93 4.55 -24.93 8.87 -20.77 L 45.23 15.61 C 49.55 19.93 49.55 27.05 45.23 31.21 L 8.87 67.57 Z" fill="url(#logoGradient512)"/>
    
  </g>
</svg> 